<svg width="516" height="411" viewBox="0 0 516 411" fill="none" xmlns="http://www.w3.org/2000/svg">
<g id="Frame">
<g id="__id122_sxp593erm9">
<path id="Vector" d="M192.9 96.1998C189 84.6998 188.3 72.2998 188.5 60.1998C188.8 38.8998 200.1 -0.00022161 229.9 9.79978C254.1 17.7998 272 60.1998 272.8 82.8998C273.2 95.0998 269.5 107.8 261.1 116.8C249.6 129 229.6 132.3 214.9 124.2C204.2 118.5 196.8 107.7 192.9 96.1998ZM335.6 129.4C347.5 141.3 367.6 142.6 382.3 134.4C397 126.2 406.3 110.2 409.1 93.5998C413 70.3998 405.9 20.3998 377.9 13.0998C347.8 5.19978 322.9 28.1998 318.2 56.1998C315 75.5998 317.6 95.8998 325.6 113.9C328.2 119.5 331.3 125 335.6 129.4ZM471.7 133.2C435.1 128.5 425.5 178.2 434.4 203.5C437.7 212.7 443.5 222 452.9 224.6C456.5 225.6 460.3 225.5 463.9 225C477.9 223.2 491.3 215.8 499.4 204.3C515.8 181.2 502.5 137.2 471.7 133.2ZM405.2 267.3C382.9 247.7 358.1 229.3 344.8 202.8C341.8 196.8 339.4 190.3 335.5 184.8C323.5 167.7 298.2 164 279 168C256 172.8 235.9 187.5 220 204.4C199.9 225.9 184.8 251.5 165.5 273.7C155.8 284.8 144.9 295.2 138.3 308.3C129.2 326.4 129.4 348.7 138.2 367C147.1 385.2 164.2 399.1 183.8 404.5C206.3 410.7 230.2 406.1 252.7 399.9C275.2 393.7 297.6 386 320.9 385.9C343.9 385.8 366.3 393.2 389.2 394.2C412.1 395.2 438.2 387.4 448.1 366.7C452 358.6 452.9 349.4 452 340.5C449.1 311 427.5 286.9 405.2 267.3Z" fill="#FEE3D8"/>
</g>
<g id="__id123_sxp593erm9">
<path id="Vector_2" fill-rule="evenodd" clip-rule="evenodd" d="M313.899 47.7001C315.799 48.4001 317.799 49.2001 319.699 50.0001C339.099 58.1001 344.399 90.5001 354.499 108.8C362.699 123.5 377.799 119.8 376.999 136.8C376.599 145.2 375.699 153.6 374.499 161.8C371.399 184.2 367.499 206.4 362.799 228.5C362.099 231.9 331.199 230.4 330.399 233.8C323.199 265.3 316.899 269 291.399 288.8C270.699 304.9 266.399 299 240.399 302.8C207.999 307.6 197.599 331.5 167.399 318.8C162.099 316.6 136.299 339.1 131.399 336.1C119.399 328.5 108.599 318.8 97.9994 309.3C80.9994 294 63.9994 278.7 46.9994 263.4C35.4994 252.9 23.6994 242.1 16.0994 228.5C-0.000598907 199.5 5.9994 162.7 20.9994 133.1C53.5994 68.8001 122.799 36.7001 194.199 31.3001C214.699 29.7001 226.499 88.8001 255.599 33.1001C275.999 35.9001 295.699 40.8001 313.899 47.7001Z" fill="#91A6AB"/>
</g>
<g id="__id124_sxp593erm9">
<path id="Vector_3" d="M114.2 237.1C99.1997 227.6 86.9997 213.2 81.6997 196.2C76.3997 179.2 78.3997 159.8 88.2997 145.1C97.0997 132.1 116.7 117.6 131.6 129.1C145.2 139.6 155.8 163.9 160.2 179.8C164.4 195.2 165 211.7 160.2 226.9C158.9 230.8 157.3 234.7 154.6 237.8C149.7 243.3 141.9 245.5 134.6 244.9C127.3 244.2 120.4 241 114.2 237.1ZM146.8 344.1C177 356.8 211.4 352.3 243.8 347.5C269.8 343.7 297 339.3 317.7 323.2C343.2 303.4 353.5 270.1 360.7 238.6C361.5 235.3 362.2 231.9 362.9 228.5C355.9 220.7 349.6 212.3 344.9 202.8C341.9 196.8 339.5 190.3 335.6 184.8C323.6 167.7 298.3 164 279.1 168C256.1 172.8 236 187.5 220.1 204.4C200 225.9 184.9 251.5 165.6 273.7C155.9 284.8 145 295.2 138.4 308.3C134.1 316.9 131.9 326.5 131.7 336.1C136.4 339.1 141.4 341.9 146.8 344.1ZM272.7 83.0001C272.3 69.5001 265.8 49.2001 255.6 33.2001C235.5 30.5001 214.8 29.8001 194.2 31.4001C190.3 41.1001 188.5 52.0001 188.4 60.3001C188.2 72.5001 188.9 84.8001 192.8 96.3001C196.7 107.8 204.1 118.5 214.8 124.3C229.5 132.3 249.5 129.1 261 116.9C269.4 107.9 273.1 95.2001 272.7 83.0001ZM377 136.8C377.7 119.8 375.9 102.9 367.8 88.2001C357.6 70.0001 339.1 58.2001 319.7 50.0001C319.1 52.0001 318.7 54.0001 318.3 56.1001C315.1 75.5001 317.7 95.8001 325.7 113.8C328.2 119.4 331.3 124.9 335.6 129.3C346.1 139.9 363.1 142.1 377 136.8Z" fill="#FEE3D8"/>
</g>
<g id="__id125_sxp593erm9">
<path id="Vector_4" d="M447.1 218.1C443 218.1 439.1 217.2 435.7 215.5C422.5 208.8 419 191.5 420.2 177.5C421.4 163.9 426.8 138.3 439.7 128.8C444.4 125.4 449.6 124.3 455.3 125.6C467.1 128.2 479.6 138.5 487 151.7C492.9 162.2 494.6 172.8 491.7 181.4C487.5 193.9 478.6 205 467.4 211.9C460.6 216 453.6 218.1 447.1 218.1ZM450.8 128C447.4 128 444.3 129.1 441.4 131.2C429.3 140.1 424.2 164.6 423.1 177.8C422 190.8 425.1 206.9 437 212.8C444.9 216.8 455.7 215.5 465.7 209.2C476.3 202.7 484.7 192.1 488.7 180.3C491.3 172.5 489.8 162.8 484.3 153C477.4 140.7 465.4 130.8 454.6 128.3C453.3 128.2 452.1 128 450.8 128ZM109.5 232.1C107.1 232.1 104.6 231.8 102.3 231.2C97.6 229.9 92.9 227.4 88.3 223.5C75.3 212.6 67.5 194.9 67.5 176.2C67.5 161.6 73 134.2 87.8 122.7C91.6 119.7 95.7 118.5 99.9 119.2C110.5 120.8 119.4 133.6 125.9 143C126.7 144.1 127.4 145.1 128 146.1C136.7 158.3 141.9 169.6 144 180.6C146.6 194.4 144 208 136.9 217.8C130.3 226.7 119.8 232.1 109.5 232.1ZM97.7 122C95 122 92.3 123 89.7 125.1C77.3 134.8 70.6 158.6 70.6 176.2C70.6 194 78 210.9 90.3 221.2C94.5 224.7 98.8 227.1 103.1 228.3C114.2 231.3 127.1 226.2 134.5 215.9C141.2 206.7 143.5 194 141.1 181C139.1 170.4 134 159.5 125.6 147.7C124.9 146.7 124.2 145.7 123.4 144.6C117.2 135.7 108.7 123.5 99.5 122.1C98.9 122 98.3 122 97.7 122ZM212.8 394.5C209.1 394.5 205.5 394.3 201.8 393.8C174.7 390 149.8 369.7 140 343.1C130.5 317.3 134.7 286.7 151.1 263.4C161.3 248.9 175.3 237.8 188.9 227.1C191.9 224.8 194.9 222.4 197.9 220C205.4 213.9 212.1 206.9 218.6 200.2C222.5 196.1 226.6 191.9 230.8 187.8C256.7 163.2 300.6 151.9 334.4 177.9C346.7 187.4 355.6 200.5 364.2 213.2C368 218.8 371.9 224.6 376.1 230C382.1 237.8 388.9 245.2 395.6 252.3C404.8 262.2 414.3 272.5 421.8 284.1C433.3 302 441.9 330.5 428.2 352.4C413.5 375.9 382 378.6 369.1 378.7C359.7 378.8 350.1 377.9 340.9 377.1C328.6 376 315.8 374.8 303.4 375.9C289.5 377.1 275.7 381.2 262.3 385.1C246.1 389.7 229.6 394.5 212.8 394.5ZM153.7 265.1C137.9 287.7 133.8 317.2 143 342.1C152.4 367.6 176.3 387.2 202.3 390.8C222.2 393.6 241.2 388 261.4 382.1C274.9 378.2 288.9 374.1 303.1 372.8C315.8 371.7 328.7 372.9 341.2 374C350.4 374.8 359.8 375.7 369.1 375.6C381.5 375.5 411.7 372.9 425.7 350.7C438.6 330.1 430.4 302.8 419.3 285.7C412 274.3 402.5 264.2 393.4 254.3C386.7 247.1 379.8 239.7 373.8 231.8C369.6 226.3 365.6 220.5 361.8 214.8C353.4 202.3 344.6 189.4 332.7 180.2C300.2 155.2 258 166.1 233 189.9C228.8 193.9 224.8 198.1 220.9 202.2C214.4 209 207.6 216 200 222.3C197 224.7 194 227.1 191 229.5C177.4 240 163.6 250.9 153.7 265.1ZM342.3 133.1C327.8 133.1 315.2 122.1 309.6 110C302.6 95.1001 303.7 78.0001 305.3 64.9001C307.5 47.3001 313 24.3001 326.3 14.0001C331.8 9.80006 338.3 8.10006 345.5 9.10006C356.1 10.6001 367 18.0001 376.1 30.1001C384.2 40.8001 389.8 53.6001 391.1 64.5001C393.2 81.5001 386.2 100.4 371.9 116.6C363.6 126 355.4 131.3 346.9 132.7C345.4 132.9 343.8 133.1 342.3 133.1ZM308.2 65.2001C306.6 78.0001 305.6 94.5001 312.2 108.7C317.9 121 331.6 132.2 346.4 129.7C354.2 128.4 361.8 123.4 369.6 114.6C383.3 99.1001 390 81.0001 388 64.9001C385.7 45.9001 367.3 15.2001 344.9 12.1001C338.5 11.2001 332.8 12.7001 328 16.4001C314.9 26.5001 310 51.3001 308.2 65.2001ZM203.4 119.7C196.6 119.7 189.7 118.3 183.4 114.7C162.2 102 163.5 72.0001 164.3 63.1001C166.4 42.0001 176.8 16.0001 194.5 8.80006C204.8 4.60006 215.9 7.50006 227.5 17.4001C242.4 30.1001 257.8 52.4001 258.6 73.6001C259.1 85.3001 255.1 95.4001 246.9 103.6C241.8 108.7 234.9 112.6 225.2 115.8C219 117.8 211.3 119.7 203.4 119.7ZM203.8 10.0001C201 10.0001 198.3 10.5001 195.6 11.6001C179.8 18.0001 169.4 42.5001 167.3 63.4001C166.5 71.8001 165.3 100.3 185 112C197.5 119.4 213.2 116.6 224.3 112.9C233.5 109.8 240 106.2 244.8 101.4C252.4 93.8001 256 84.5001 255.6 73.6001C254.8 53.3001 239.9 31.9001 225.5 19.6001C218 13.3001 210.7 10.0001 203.8 10.0001Z" fill="#545454"/>
</g>
</g>
</svg>
