<svg width="7103" height="3178" viewBox="0 0 7103 3178" fill="none" xmlns="http://www.w3.org/2000/svg">
<g id="Group 13946">
<g id="Group 13944">
<path id="Ellipse 22" d="M7103 2260C7103 2598 6382.04 2872 5492.69 2872C4603.34 2872 3882.38 2598 3882.38 2260C3882.38 1922 4603.34 1648 5492.69 1648C6382.04 1648 7103 1922 7103 2260Z" fill="#C9C9C9"/>
<path id="Ellipse 23" d="M5130.51 2566C5130.51 2904 4409.55 3178 3520.2 3178C2630.85 3178 1909.89 2904 1909.89 2566C1909.89 2228 2630.85 1954 3520.2 1954C4409.55 1954 5130.51 2228 5130.51 2566Z" fill="#C9C9C9"/>
<path id="Ellipse 24" d="M2332.75 2734.56C2332.75 2979.47 1810.54 3178 1166.37 3178C522.203 3178 0 2979.47 0 2734.56C0 2489.66 522.203 2291.13 1166.37 2291.13C1810.54 2291.13 2332.75 2489.66 2332.75 2734.56Z" fill="#C9C9C9"/>
<path id="Rectangle 32" d="M1909.89 2566H7103V3178H1909.89V2566Z" fill="#C9C9C9"/>
<path id="Rectangle 34" d="M0 2719H5193.11V3178H0V2719Z" fill="#C9C9C9"/>
<path id="Rectangle 33" d="M2676.4 2239.42H7103V2787.59H2676.4V2239.42Z" fill="#C9C9C9"/>
</g>
<g id="Group 13945">
<path id="Ellipse 22_2" d="M6549.2 3178C6753.1 3178 6918.4 2855.43 6918.4 2457.52C6918.4 2059.61 6753.1 1737.04 6549.2 1737.04C6345.3 1737.04 6180 2059.61 6180 2457.52C6180 2855.43 6345.3 3178 6549.2 3178Z" fill="#C9C9C9"/>
<path id="Ellipse 23_2" d="M6733.8 2295.48C6937.7 2295.48 7103 1972.91 7103 1575C7103 1177.09 6937.7 854.516 6733.8 854.516C6529.9 854.516 6364.6 1177.09 6364.6 1575C6364.6 1972.91 6529.9 2295.48 6733.8 2295.48Z" fill="#C9C9C9"/>
<path id="Ellipse 24_2" d="M6835.49 1043.71C6983.23 1043.71 7103 810.068 7103 521.855C7103 233.642 6983.23 0 6835.49 0C6687.75 0 6567.98 233.642 6567.98 521.855C6567.98 810.068 6687.75 1043.71 6835.49 1043.71Z" fill="#C9C9C9"/>
<path id="Rectangle 32_2" d="M6733.8 854.516V3178H7103V854.516H6733.8Z" fill="#C9C9C9"/>
<path id="Rectangle 34_2" d="M6826.1 0V2323.48H7103V0L6826.1 0Z" fill="#C9C9C9"/>
<path id="Rectangle 33_2" d="M6536.79 1197.47V3178H6867.48V1197.47H6536.79Z" fill="#C9C9C9"/>
</g>
</g>
</svg>
